HIERARCHY
ROOT hip
{
	OFFSET 0.000000 0.000000 0.000000 
	CHANNELS 6 Xposition Yposition Zposition Zrotation Xrotation Yrotation
	JOINT abdomen
	{
		OFFSET 0.000000 3.402643 0.000000 
		CHANNELS 3 Zrotation Xrotation Yrotation
		JOINT chest
		{
			OFFSET 0.000000 8.438565 -0.680529 
			CHANNELS 3 Zrotation Xrotation Yrotation
			JOINT neck
			{
				OFFSET 0.000000 10.207942 -0.272212 
				CHANNELS 3 Zrotation Xrotation Yrotation
				JOINT head
				{
					OFFSET 0.000000 3.130431 0.000000 
					CHANNELS 3 Zrotation Xrotation Yrotation
					End Site
					{
						OFFSET 0.000000 3.130435 0.000000 
					}
				}
			}
			JOINT lCollar
			{
				OFFSET 3.470700 6.669187 -0.816635 
				CHANNELS 3 Zrotation Xrotation Yrotation
				JOINT lShldr
				{
					OFFSET 3.198488 0.000000 0.000000 
					CHANNELS 3 Zrotation Xrotation Yrotation
					JOINT lForeArm
					{
						OFFSET 10.139888 0.000000 0.000000 
						CHANNELS 3 Zrotation Xrotation Yrotation
						JOINT lHand
						{
							OFFSET 8.370511 0.000000 0.000000 
							CHANNELS 3 Zrotation Xrotation Yrotation
							End Site
							{
								OFFSET 4.083176 0.000000 0.000000 
							}
						}
					}
				}
			}
			JOINT rCollar
			{
				OFFSET -3.470700 6.669187 -0.816635 
				CHANNELS 3 Zrotation Xrotation Yrotation
				JOINT rShldr
				{
					OFFSET -3.198488 0.000000 0.000000 
					CHANNELS 3 Zrotation Xrotation Yrotation
					JOINT rForeArm
					{
						OFFSET -10.139888 0.000000 0.000000 
						CHANNELS 3 Zrotation Xrotation Yrotation
						JOINT rHand
						{
							OFFSET -8.370511 0.000000 0.000000 
							CHANNELS 3 Zrotation Xrotation Yrotation
							End Site
							{
								OFFSET -4.083176 0.000000 0.000000 
							}
						}
					}
				}
			}
		}
	}
	JOINT lThigh
	{
		OFFSET 5.308129 -1.633274 1.361059 
		CHANNELS 3 Zrotation Xrotation Yrotation
		JOINT lShin
		{
			OFFSET -2.041588 -20.007561 0.000000 
			CHANNELS 3 Zrotation Xrotation Yrotation
			JOINT lFoot
			{
				OFFSET 0.000000 -19.190928 -1.224953 
				CHANNELS 3 Zrotation Xrotation Yrotation
				End Site
				{
					OFFSET 0.000000 -2.449906 4.627600 
				}
			}
		}
	}
	JOINT rThigh
	{
		OFFSET -5.308129 -1.633274 1.361059 
		CHANNELS 3 Zrotation Xrotation Yrotation
		JOINT rShin
		{
			OFFSET 2.041588 -20.007561 0.000000 
			CHANNELS 3 Zrotation Xrotation Yrotation
			JOINT rFoot
			{
				OFFSET 0.000000 -19.190928 -1.224953 
				CHANNELS 3 Zrotation Xrotation Yrotation
				End Site
				{
					OFFSET 0.000000 -2.449906 4.627600 
				}
			}
		}
	}
}
MOTION
Frames: 11
Frame Time: 0.033333
0.717339 50.744320 -3.333009 -0.322390 -1.591772 -1.971902 -0.000000 -0.000002 -0.000000 0.088275 5.351557 -14.012141 -4.097610 6.370523 17.740589 -0.954937 -15.993991 -0.145955 -2.000757 -0.069240 1.990978 -72.663338 -11.705314 9.835413 1.078888 10.777785 -13.569462 -23.779694 16.161705 0.457534 1.990970 -0.069577 -2.000746 75.578926 9.636571 1.208460 -4.024687 14.467554 17.313101 20.001696 0.741973 1.377069 9.044526 -10.230139 13.400517 -3.954144 23.216360 1.436613 -1.978104 -8.681621 -4.355197 -6.986960 -4.521275 2.548021 6.040211 18.164963 1.286918 -4.298692 -17.388136 -13.866231 
0.668315 50.630543 -3.972247 -0.234435 -1.298817 -1.499455 -0.000000 -0.000002 -0.000000 0.850206 8.954113 -14.067883 -3.932284 3.293023 17.110336 -0.954937 -15.993991 -0.145955 -2.000757 -0.069240 1.990978 -71.591171 -11.771091 10.885928 1.337936 10.719973 -16.101862 -27.942043 23.762867 2.283527 1.990970 -0.069577 -2.000746 75.540939 8.413899 3.307120 -4.425086 14.342559 18.971659 19.555159 9.812241 -1.228916 8.840477 -12.132813 12.446512 -4.095378 23.532740 1.535106 -1.625457 -7.587187 -3.621311 -7.286914 -7.047215 2.671775 6.790304 20.143190 1.033109 -4.678201 -17.135166 -14.625812 
0.619292 50.511150 -4.611485 -0.146507 -1.005856 -1.037753 -0.000000 -0.000002 -0.000000 1.640863 12.563372 -14.175306 -3.769558 0.233866 16.499151 -0.954937 -15.993991 -0.145955 -2.000757 -0.069240 1.990978 -70.663139 -11.912011 11.720701 1.574896 10.648563 -18.394281 -32.200443 31.419334 4.681824 1.990970 -0.069577 -2.000746 75.646103 7.213169 5.492820 -4.779542 14.230430 20.408066 19.758131 19.201115 -4.157431 8.539503 -14.169451 10.423630 -4.629594 25.601524 1.795727 -1.072217 -7.419075 -2.567616 -7.397945 -9.160329 2.835985 7.299515 21.414534 0.889966 -5.035154 -16.532990 -15.441761 
0.570270 50.386219 -5.250723 -0.058599 -0.712891 -0.567135 -0.000000 -0.000002 -0.000000 2.450364 16.157864 -14.334133 -3.627465 -2.826369 15.894499 -0.954937 -15.993991 -0.145955 -2.000757 -0.069240 1.990978 -70.225212 -12.291346 11.587523 1.720587 10.606640 -19.803249 -35.302074 39.655693 7.123436 1.990970 -0.069577 -2.000746 75.841705 6.049914 7.719031 -5.100970 14.110397 21.772196 20.591211 28.633831 -7.437241 7.945625 -16.218836 7.321795 -5.483904 29.148228 2.194906 -0.436808 -8.027935 -1.137422 -7.588847 -10.994704 3.012206 7.596114 21.899250 0.745964 -5.070223 -15.466153 -16.158682 
0.521246 50.255657 -5.889961 0.019532 -0.410156 -0.117044 -0.000000 -0.000002 -0.000000 3.289294 19.745327 -14.540072 -3.465752 -5.907224 15.306106 -0.954937 -15.993991 -0.145955 -2.000757 -0.069240 1.990978 -70.629822 -12.998307 9.744207 1.700210 10.617837 -19.625006 -35.478088 49.191933 8.475470 1.990970 -0.069577 -2.000746 76.109879 4.898842 9.890002 -5.463409 13.976439 23.265741 21.995079 37.877392 -11.037118 7.213016 -18.571671 4.130764 -6.501526 33.063637 2.814573 0.057380 -7.619719 0.342779 -7.729128 -12.708876 3.206477 7.759566 22.167122 0.683277 -5.023489 -14.263892 -16.887321 
0.486424 49.728695 -7.055673 0.342042 2.167930 0.582822 -0.000000 -0.000002 -0.000000 4.223756 23.361191 -15.250950 -3.342320 -9.037593 15.148229 -0.954937 -15.993991 -0.145955 -2.000757 -0.069240 1.990978 -72.358589 -14.438301 5.486282 1.450037 10.690284 -17.203741 -29.035402 60.616234 5.579582 1.990970 -0.069577 -2.000746 76.310135 4.144565 12.092642 -5.873378 13.801609 25.027014 23.929935 46.672932 -14.934711 5.177190 -20.040308 0.784288 -5.878893 30.010632 2.481151 0.783989 -8.439618 1.940486 -8.366466 -17.494331 3.334796 8.312786 22.951315 0.401273 -5.095183 -12.846508 -18.054222 
0.451603 49.245216 -8.221350 0.627168 4.765341 1.256596 -0.000000 -0.000002 -0.000000 5.407071 27.492876 -16.164068 -3.183624 -12.715364 15.001700 -0.954937 -15.993991 -0.145955 -2.000757 -0.069240 1.990978 -75.329063 -16.040131 -1.473389 1.019209 10.785526 -12.933522 -6.701104 72.386642 -11.428967 1.990970 -0.069577 -2.000746 76.458115 3.316635 14.644210 -6.387419 13.564335 27.254946 26.270069 54.837578 -19.024836 3.275947 -21.591124 -2.590248 -5.284767 26.886688 2.199194 1.460419 -7.627981 3.498205 -8.943310 -21.808144 3.371631 8.278932 22.557762 0.383608 -4.755384 -10.665538 -19.138699 
0.416782 48.740849 -9.387028 0.896040 7.352626 1.916721 -0.000000 -0.000002 -0.000000 6.814755 31.907290 -17.315367 -2.977354 -16.707201 14.895313 -0.954937 -15.993991 -0.145955 -2.000757 -0.069240 1.990978 -79.045090 -17.260403 -9.985220 0.463843 10.865464 -7.745958 53.903942 76.578751 -65.839745 1.990970 -0.069577 -2.000746 76.589462 2.396859 17.261669 -7.032280 13.224247 30.114651 28.532454 62.226254 -22.838160 2.084856 -24.693594 -4.554543 -5.055622 25.125696 2.140151 1.652954 -5.296165 4.123002 -9.559871 -25.747347 3.421980 7.948691 21.400703 0.483250 -4.188872 -8.089146 -20.204235 
0.381961 48.157799 -10.552684 1.130281 9.949274 2.588082 -0.000000 -0.000002 -0.000000 8.426873 36.362728 -18.652523 -2.768054 -20.778585 14.807917 -0.954937 -15.993991 -0.145955 -2.000757 -0.069240 1.990978 -82.852844 -17.861198 -18.705956 -0.077664 10.892785 -2.535836 97.921730 67.266060 -103.619370 1.990970 -0.069577 -2.000746 76.653679 1.389152 19.605604 -7.823039 12.755364 33.750912 29.661236 68.713333 -25.301626 1.429600 -28.986353 -5.179297 -4.990125 24.232210 2.168333 1.497216 -2.720210 4.006152 -10.256783 -29.499392 3.435301 7.526745 20.057013 0.619203 -3.546102 -5.519185 -21.312754 
0.347139 47.443920 -11.718406 1.330603 12.545553 3.236535 -0.000000 -0.000002 -0.000000 10.215897 40.640686 -20.208843 -2.536833 -24.695465 14.750102 -0.954937 -15.993991 -0.145955 -2.000757 -0.069240 1.990978 -83.741005 -18.978977 -13.811345 1.804683 10.583857 -20.597013 105.251198 62.206848 -109.159485 1.990970 -0.069577 -2.000746 76.650002 0.300052 21.396795 -8.793695 12.088568 38.350307 27.266182 74.157761 -24.007816 0.678393 -33.348042 -5.940872 -4.952469 23.611666 2.185824 1.371958 -0.319060 4.003861 -11.197117 -33.434048 3.267859 7.314623 19.255987 0.661752 -2.929375 -3.311727 -22.392300 
0.312318 46.550823 -12.884027 1.507421 15.141484 3.893280 -0.000000 -0.000002 -0.000000 12.121001 44.500626 -21.889208 -2.283293 -28.223223 14.700681 -0.954937 -15.993991 -0.145955 -2.000757 -0.069240 1.990978 -83.127945 -20.578430 -9.163482 3.181991 9.918142 -35.163181 96.522675 52.022594 -100.045074 1.990970 -0.069577 -2.000746 76.209999 -1.155101 13.733315 -12.642413 7.746597 61.024235 40.017155 74.632782 -35.657455 -0.148072 -38.058262 -6.858345 -5.095785 24.014620 2.278903 1.220849 1.387236 4.077517 -12.534410 -38.025654 2.794795 7.638627 20.039259 0.538850 -2.608920 -2.009381 -23.547012 
